<svg viewBox="0 0 685 685"><path fill="#444" d="M0,344a342,342 0 1,0 684,0a342,342 0 1,0 -684,0"/><path fill="#f6f6f6" d="m289.2 431.3c-7.6 10.8-12.4 21.6-14.2 32.3-5.4 4.7-20.6 7.6-38.2 5.8-7-0.9-19-5.7-43.6-38.9-15.7-15.8-27-13.8-30.3-14-4.9 0.2-9.1 1.4-11.6 5.5 8.8 7.3 17.5 15.3 26.7 26 3.6 3.9 9.9 20.1 21.1 35.2 17.9 18.6 42.2 19.2 74.8 16.5 1.9 17.1 1.9 33.6 0 52.1 48.7 12.4 81.1 9.2 128.3 1.8l-0.7-85.4c-1-12.2-4.3-24.6-14.9-37.8 65.5-10.5 110.4-39.4 112.6-111.2 1.4-28.6-2.3-56.2-25.4-79.9 5.4-19.6 7.1-40.5-2.9-65.4-21.9-3.4-45 9.1-68.3 24.3-39.5-9.5-81.4-12.4-128.6 0.4-21-14.3-42.1-28.6-68.3-25.4-9.6 23.6-9.7 45.7-2.9 66.9-25.1 30.2-25.5 47.3-26.2 68.7 2.9 106.5 75.4 114.8 112.6 122.4z"/></svg>
